<?xml version="1.0" encoding="UTF-8"?>
<svg version="1.1" xmlns="http://www.w3.org/2000/svg" width="235" height="193">
<path d="M0 0 C0.696129 0.3219635 1.392258 0.643927 2.10948181 0.97564697 C4.3548744 2.02165369 6.58607361 3.09417076 8.81640625 4.171875 C10.28263546 4.87060931 11.74894378 5.56917765 13.21533203 6.26757812 C16.9946777 8.07848585 20.76025484 9.91639535 24.521698 11.76416016 C27.76444087 13.35679481 31.01109281 14.94138707 34.25752258 16.52648926 C35.87462224 17.31610611 37.49155772 18.10605929 39.10832214 18.8963623 C53.86032275 26.10679825 68.66516323 33.17779627 83.64038086 39.9140625 C96.65680236 45.77286527 96.65680236 45.77286527 97.69140625 48.359375 C97.73265625 48.9575 97.77390625 49.555625 97.81640625 50.171875 C95.46866342 51.34574642 94.05558471 51.30903104 91.43783569 51.33009338 C90.51794357 51.3398822 89.59805145 51.34967102 88.65028381 51.35975647 C87.13222389 51.36838966 87.13222389 51.36838966 85.58349609 51.37719727 C84.52006485 51.38709686 83.45663361 51.39699646 82.36097717 51.40719604 C78.8331223 51.4388758 75.30525393 51.46359407 71.77734375 51.48828125 C69.33639163 51.50884518 66.89544311 51.5298415 64.45449829 51.55125427 C58.0199678 51.60653283 51.58540487 51.65591658 45.15081787 51.70410156 C38.58879702 51.7542744 32.02682346 51.80998245 25.46484375 51.86523438 C12.5820719 51.97288668 -0.3007403 52.07450375 -13.18359375 52.171875 C-10.26408945 53.1450431 -8.12914424 53.3648296 -5.078125 53.48828125 C-3.60375977 53.55112305 -3.60375977 53.55112305 -2.09960938 53.61523438 C-1.07544922 53.65455078 -0.05128906 53.69386719 1.00390625 53.734375 C2.03966797 53.77755859 3.07542969 53.82074219 4.14257812 53.86523438 C6.70038815 53.97131866 9.2582947 54.07337646 11.81640625 54.171875 C11.81640625 53.511875 11.81640625 52.851875 11.81640625 52.171875 C12.80640625 52.171875 13.79640625 52.171875 14.81640625 52.171875 C15.14640625 52.501875 15.47640625 52.831875 15.81640625 53.171875 C15.81640625 52.841875 15.81640625 52.511875 15.81640625 52.171875 C22.08640625 52.171875 28.35640625 52.171875 34.81640625 52.171875 C34.81640625 52.501875 34.81640625 52.831875 34.81640625 53.171875 C41.74640625 53.171875 48.67640625 53.171875 55.81640625 53.171875 C55.81640625 52.841875 55.81640625 52.511875 55.81640625 52.171875 C58.12640625 52.171875 60.43640625 52.171875 62.81640625 52.171875 C62.81640625 52.501875 62.81640625 52.831875 62.81640625 53.171875 C65.45640625 53.171875 68.09640625 53.171875 70.81640625 53.171875 C72.36775373 57.29869086 73.05507704 60.65185943 72.98339844 65.05371094 C72.96968201 66.18798523 72.95596558 67.32225952 72.9418335 68.49090576 C72.91591125 69.70046936 72.88998901 70.91003296 72.86328125 72.15625 C72.83285736 74.03416229 72.83285736 74.03416229 72.80181885 75.95001221 C72.75632851 78.58948087 72.70664926 81.22846593 72.64990234 83.86767578 C72.57768716 87.25259661 72.52383506 90.63751846 72.47544479 94.02285385 C72.42685785 97.25500222 72.36321112 100.48684382 72.30078125 103.71875 C72.28295593 104.93641052 72.26513062 106.15407104 72.24676514 107.40863037 C72.20727753 109.09112885 72.20727753 109.09112885 72.16699219 110.80761719 C72.13795807 112.29270782 72.13795807 112.29270782 72.1083374 113.80780029 C71.81640625 116.171875 71.81640625 116.171875 69.81640625 118.171875 C67.17920208 118.42355728 67.17920208 118.42355728 63.7631073 118.42584229 C62.47180405 118.43148193 61.18050079 118.43712158 59.85006714 118.44293213 C58.41070501 118.43904309 56.97134343 118.43494672 55.53198242 118.43066406 C54.0225762 118.43337289 52.5131713 118.43693321 51.00376892 118.44128418 C46.89621184 118.45042569 42.78875488 118.44685609 38.68119597 118.44052601 C34.38603804 118.43547232 30.09088885 118.44015596 25.79573059 118.44329834 C18.57856707 118.44694101 11.36144443 118.44213225 4.14428711 118.43261719 C-4.1990194 118.42174441 -12.54222808 118.42524843 -20.8855322 118.43627 C-28.0448356 118.44534907 -35.20410955 118.44662474 -42.36341685 118.44139266 C-46.64092816 118.43827478 -50.91839352 118.43785837 -55.19590187 118.44446564 C-59.22025434 118.45024704 -63.24448093 118.44622764 -67.26881981 118.43467712 C-68.74543423 118.43203426 -70.22205925 118.43278927 -71.69866943 118.43720245 C-73.71555705 118.4426741 -75.73246782 118.43459348 -77.74934387 118.42584229 C-78.87778623 118.42508823 -80.00622858 118.42433418 -81.16886616 118.42355728 C-84.22181535 118.1686841 -86.42426448 117.46630426 -89.18359375 116.171875 C-89.33719926 108.23583481 -89.48538087 100.29972015 -89.62655735 92.36345005 C-89.692277 88.67868552 -89.75989449 84.99397584 -89.83178711 81.30932617 C-89.90104396 77.75623912 -89.96539677 74.20309457 -90.02628899 70.64985466 C-90.050443 69.29138884 -90.07639133 67.93295375 -90.10412788 66.57455635 C-90.14254951 64.67813004 -90.17411191 62.78156846 -90.20532227 60.88500977 C-90.22530777 59.80357193 -90.24529327 58.72213409 -90.2658844 57.60792542 C-90.18359375 55.171875 -90.18359375 55.171875 -89.18359375 54.171875 C-87.62410833 54.01501251 -86.05816707 53.92110861 -84.4921875 53.85546875 C-83.07583008 53.79262695 -83.07583008 53.79262695 -81.63085938 53.72851562 C-80.63763672 53.68919922 -79.64441406 53.64988281 -78.62109375 53.609375 C-77.62400391 53.56619141 -76.62691406 53.52300781 -75.59960938 53.47851562 C-73.12775225 53.37207202 -70.65579065 53.27005572 -68.18359375 53.171875 C-72.62076585 52.09422127 -77.00495647 51.95512978 -81.546875 51.85546875 C-82.33885788 51.83468765 -83.13084076 51.81390656 -83.94682312 51.79249573 C-86.46316303 51.72739696 -88.97960247 51.66830077 -91.49609375 51.609375 C-93.20769236 51.566152 -94.9192811 51.52253652 -96.63085938 51.47851562 C-100.81500359 51.37175653 -104.99924737 51.27037865 -109.18359375 51.171875 C-109.84359375 49.851875 -110.50359375 48.531875 -111.18359375 47.171875 C-110.21421875 46.6871875 -109.24484375 46.2025 -108.24609375 45.703125 C-107.2881189 45.22407715 -107.2881189 45.22407715 -106.31079102 44.73535156 C-104.86609636 44.01308714 -103.42126742 43.29109127 -101.97631836 42.56933594 C-98.46031063 40.81265829 -94.9456116 39.05365071 -91.4375 37.28125 C-73.58398003 28.27587163 -55.50685475 19.7436413 -37.32983398 11.41357422 C-30.4814057 8.26452248 -23.69521173 5.02116655 -16.98803711 1.58105469 C-15.39330513 0.76467433 -13.7888491 -0.03263633 -12.18359375 -0.828125 C-11.44334961 -1.24787598 -10.70310547 -1.66762695 -9.94042969 -2.10009766 C-6.01987154 -3.13544165 -3.48379311 -1.69463637 0 0 Z M-53.18359375 51.171875 C-52.19359375 52.656875 -52.19359375 52.656875 -51.18359375 54.171875 C-48.5170547 54.53647953 -48.5170547 54.53647953 -45.55859375 54.359375 C-44.55570313 54.33230469 -43.5528125 54.30523437 -42.51953125 54.27734375 C-41.74867187 54.24253906 -40.9778125 54.20773438 -40.18359375 54.171875 C-40.18359375 53.511875 -40.18359375 52.851875 -40.18359375 52.171875 C-39.52359375 51.841875 -38.86359375 51.511875 -38.18359375 51.171875 C-43.13359375 51.171875 -48.08359375 51.171875 -53.18359375 51.171875 Z M-27.18359375 51.171875 C-27.18359375 51.501875 -27.18359375 51.831875 -27.18359375 52.171875 C-25.53359375 52.171875 -23.88359375 52.171875 -22.18359375 52.171875 C-22.18359375 51.841875 -22.18359375 51.511875 -22.18359375 51.171875 C-23.83359375 51.171875 -25.48359375 51.171875 -27.18359375 51.171875 Z M-33.18359375 53.171875 C-33.18359375 53.501875 -33.18359375 53.831875 -33.18359375 54.171875 C-30.87359375 54.171875 -28.56359375 54.171875 -26.18359375 54.171875 C-26.18359375 53.841875 -26.18359375 53.511875 -26.18359375 53.171875 C-28.49359375 53.171875 -30.80359375 53.171875 -33.18359375 53.171875 Z M16.81640625 61.171875 C16.81640625 63.811875 16.81640625 66.451875 16.81640625 69.171875 C22.09640625 69.171875 27.37640625 69.171875 32.81640625 69.171875 C32.81640625 83.031875 32.81640625 96.891875 32.81640625 111.171875 C35.45640625 111.501875 38.09640625 111.831875 40.81640625 112.171875 C43.26070092 110.17144664 43.26070092 110.17144664 43.04345703 106.18115234 C43.04313962 104.45667331 43.03179749 102.73217467 43.01171875 101.0078125 C43.00747391 99.64700058 43.00747391 99.64700058 43.00314331 98.25869751 C42.99192778 95.35462377 42.96682088 92.45085588 42.94140625 89.546875 C42.93137822 87.58073361 42.92225206 85.6145874 42.9140625 83.6484375 C42.89198397 78.82279841 42.8574449 73.9973886 42.81640625 69.171875 C48.09640625 69.171875 53.37640625 69.171875 58.81640625 69.171875 C58.81640625 66.531875 58.81640625 63.891875 58.81640625 61.171875 C44.95640625 61.171875 31.09640625 61.171875 16.81640625 61.171875 Z M-58.18359375 62.171875 C-58.39242187 63.34878906 -58.60125 64.52570313 -58.81640625 65.73828125 C-60.39161447 72.81564471 -63.3149688 79.42414661 -66.05859375 86.109375 C-66.59440111 87.42877223 -67.12956146 88.7484324 -67.6640625 90.06835938 C-68.69290421 92.60669995 -69.7251784 95.14359393 -70.76074219 97.67919922 C-72.58954221 102.16835727 -74.39156691 106.66793189 -76.18359375 111.171875 C-74.90484375 111.378125 -73.62609375 111.584375 -72.30859375 111.796875 C-71.58929688 111.91289062 -70.87 112.02890625 -70.12890625 112.1484375 C-69.16597656 112.16003906 -69.16597656 112.16003906 -68.18359375 112.171875 C-65.87172544 109.86000669 -65.7551277 108.81531174 -65.18359375 105.671875 C-64.40581597 101.39409722 -64.40581597 101.39409722 -62.18359375 99.171875 C-60.12060547 98.94482422 -60.12060547 98.94482422 -57.61328125 98.9765625 C-56.71738281 98.98300781 -55.82148437 98.98945312 -54.8984375 98.99609375 C-53.96128906 99.01285156 -53.02414063 99.02960938 -52.05859375 99.046875 C-51.11371094 99.05589844 -50.16882813 99.06492188 -49.1953125 99.07421875 C-46.85782083 99.09782978 -44.52083252 99.13075984 -42.18359375 99.171875 C-40.47702481 103.18855554 -39.69460968 106.82823956 -39.18359375 111.171875 C-35.88359375 111.501875 -32.58359375 111.831875 -29.18359375 112.171875 C-28.68859375 111.181875 -28.68859375 111.181875 -28.18359375 110.171875 C-29.13180805 107.58808625 -30.14756884 105.11351011 -31.26171875 102.6015625 C-31.58895935 101.84650421 -31.91619995 101.09144592 -32.25335693 100.31350708 C-33.30611242 97.8880312 -34.36940882 95.46735522 -35.43359375 93.046875 C-36.48149006 90.64699455 -37.52714823 88.24616227 -38.57098389 85.84451294 C-39.22153597 84.34953341 -39.87473716 82.85570277 -40.53106689 81.36325073 C-46.66718063 67.33013505 -46.66718063 67.33013505 -46.18359375 62.171875 C-50.2680249 60.64021332 -53.97815032 61.54105848 -58.18359375 62.171875 Z M-19.18359375 62.171875 C-19.20823576 69.13191466 -19.22642597 76.09192916 -19.23852539 83.05200195 C-19.24356716 85.42179812 -19.2504004 87.79159115 -19.2590332 90.16137695 C-19.27110565 93.55941539 -19.27682346 96.95741285 -19.28125 100.35546875 C-19.28641129 101.42212265 -19.29157257 102.48877655 -19.29689026 103.5877533 C-19.29696579 104.56869461 -19.29704132 105.54963593 -19.29711914 106.56030273 C-19.29933975 107.42856186 -19.30156036 108.29682098 -19.30384827 109.19139099 C-19.40314042 111.17331181 -19.40314042 111.17331181 -18.18359375 112.171875 C-15.45635096 112.27286988 -12.75496852 112.31158029 -10.02734375 112.3046875 C-8.80114319 112.30612259 -8.80114319 112.30612259 -7.5501709 112.30758667 C-5.81843997 112.30826845 -4.08670651 112.30641429 -2.35498047 112.30224609 C0.30507107 112.29689779 2.96495375 112.30219112 5.625 112.30859375 C7.30338579 112.30793297 8.98177148 112.3066518 10.66015625 112.3046875 C11.46118774 112.30671173 12.26221924 112.30873596 13.08752441 112.31082153 C16.75222926 112.64401168 16.75222926 112.64401168 19.81640625 111.171875 C19.81640625 108.861875 19.81640625 106.551875 19.81640625 104.171875 C9.91640625 104.171875 0.01640625 104.171875 -10.18359375 104.171875 C-10.18359375 90.311875 -10.18359375 76.451875 -10.18359375 62.171875 C-13.15359375 62.171875 -16.12359375 62.171875 -19.18359375 62.171875 Z " fill="#B9A075" transform="translate(126.18359375,17.828125)"/>
<path d="M0 0 C0.6821021 -0.00155999 1.36420421 -0.00311998 2.06697607 -0.00472724 C4.36941994 -0.00873932 6.67179872 -0.00554681 8.97424316 -0.00241089 C10.61806782 -0.00376484 12.26189217 -0.00554473 13.90571594 -0.00772095 C18.38286133 -0.01229604 22.85998378 -0.01050541 27.33712959 -0.00734186 C32.01186309 -0.00481865 36.68659456 -0.00715569 41.36132812 -0.00872803 C49.21326044 -0.01054984 57.06518337 -0.00814312 64.91711426 -0.00338745 C74.00855878 0.00205519 83.09998087 0.00029254 92.19142485 -0.00521386 C99.9824809 -0.00974466 107.77353018 -0.01039569 115.56458712 -0.00777519 C120.22427011 -0.00621223 124.88394255 -0.00601915 129.54362488 -0.00931168 C133.92331179 -0.01218992 138.30296966 -0.01021556 142.68265343 -0.00441742 C144.29479105 -0.00308957 145.90693109 -0.00348436 147.51906776 -0.00568008 C149.71041793 -0.00839063 151.90167353 -0.00501168 154.09301758 0 C155.9369598 0.00056554 155.9369598 0.00056554 157.81815338 0.0011425 C160.54650879 0.12698364 160.54650879 0.12698364 161.54650879 1.12698364 C161.61877381 2.97985866 161.63032099 4.83532242 161.60900879 6.68948364 C161.59998535 7.70139771 161.59096191 8.71331177 161.58166504 9.75588989 C161.5642627 10.9295813 161.5642627 10.9295813 161.54650879 12.12698364 C163.46463379 12.31260864 163.46463379 12.31260864 165.42150879 12.50198364 C169.29650879 12.87698364 169.29650879 12.87698364 171.54650879 15.12698364 C171.77697754 17.22073364 171.77697754 17.22073364 171.73400879 19.62698364 C171.72434082 20.81807739 171.72434082 20.81807739 171.71447754 22.03323364 C171.54650879 24.12698364 171.54650879 24.12698364 170.54650879 26.12698364 C171.45400879 25.90010864 172.36150879 25.67323364 173.29650879 25.43948364 C176.54650879 25.12698364 176.54650879 25.12698364 178.92150879 26.00198364 C181.49470874 29.36693742 181.02028264 33.03388825 180.54650879 37.12698364 C180.21650879 37.78698364 179.88650879 38.44698364 179.54650879 39.12698364 C111.89650879 39.12698364 44.24650879 39.12698364 -25.45349121 39.12698364 C-26.63655849 36.76084908 -26.58703729 35.25917628 -26.57849121 32.62698364 C-26.58106934 31.83292114 -26.58364746 31.03885864 -26.58630371 30.22073364 C-26.45349121 28.12698364 -26.45349121 28.12698364 -25.45349121 26.12698364 C-23.38708496 25.71292114 -23.38708496 25.71292114 -20.89099121 25.50198364 C-20.06470215 25.42721802 -19.23841309 25.35245239 -18.38708496 25.27542114 C-17.42995605 25.20194458 -17.42995605 25.20194458 -16.45349121 25.12698364 C-16.78349121 24.46698364 -17.11349121 23.80698364 -17.45349121 23.12698364 C-17.62145996 21.25198364 -17.62145996 21.25198364 -17.64099121 19.12698364 C-17.6551709 18.42573364 -17.66935059 17.72448364 -17.68395996 17.00198364 C-17.45349121 15.12698364 -17.45349121 15.12698364 -15.45349121 13.12698364 C-12.79811749 12.56178361 -10.16204408 12.38910166 -7.45349121 12.12698364 C-7.63911621 11.24010864 -7.82474121 10.35323364 -8.01599121 9.43948364 C-8.43601346 6.25931522 -8.32640143 4.1821694 -7.45349121 1.12698364 C-5.59217414 -0.73433343 -2.48377422 0.00076178 0 0 Z " fill="#6DB1D0" transform="translate(42.4534912109375,141.87301635742188)"/>
<path d="M0 0 C0.696129 0.3219635 1.392258 0.643927 2.10948181 0.97564697 C4.3548744 2.02165369 6.58607361 3.09417076 8.81640625 4.171875 C10.28263546 4.87060931 11.74894378 5.56917765 13.21533203 6.26757812 C16.9946777 8.07848585 20.76025484 9.91639535 24.521698 11.76416016 C27.76444087 13.35679481 31.01109281 14.94138707 34.25752258 16.52648926 C35.87462224 17.31610611 37.49155772 18.10605929 39.10832214 18.8963623 C53.86032275 26.10679825 68.66516323 33.17779627 83.64038086 39.9140625 C85.30697443 40.66421054 86.97146163 41.41906483 88.63330078 42.1796875 C90.53654147 43.04468081 92.45465214 43.87680627 94.375 44.703125 C96.81640625 46.171875 96.81640625 46.171875 97.81640625 50.171875 C30.16640625 50.171875 -37.48359375 50.171875 -107.18359375 50.171875 C-107.18359375 48.851875 -107.18359375 47.531875 -107.18359375 46.171875 C-106.09046875 46.0275 -104.99734375 45.883125 -103.87109375 45.734375 C-100.25236388 45.28899396 -100.25236388 45.28899396 -97.18359375 44.171875 C-97.18359375 43.181875 -97.18359375 42.191875 -97.18359375 41.171875 C-96.52359375 41.171875 -95.86359375 41.171875 -95.18359375 41.171875 C-95.18359375 40.511875 -95.18359375 39.851875 -95.18359375 39.171875 C-76.09751856 29.50083839 -56.7800743 20.32712549 -37.32983398 11.41357422 C-30.4814057 8.26452248 -23.69521173 5.02116655 -16.98803711 1.58105469 C-15.39330513 0.76467433 -13.7888491 -0.03263633 -12.18359375 -0.828125 C-11.44334961 -1.24787598 -10.70310547 -1.66762695 -9.94042969 -2.10009766 C-6.01987154 -3.13544165 -3.48379311 -1.69463637 0 0 Z " fill="#0768A3" transform="translate(126.18359375,17.828125)"/>
<path d="M0 0 C33.99 0 67.98 0 103 0 C103 3.3 103 6.6 103 10 C103.27704428 12.00857103 103.58229572 14.01590468 104 16 C104.66 16 105.32 16 106 16 C106 15.34 106 14.68 106 14 C107.97909398 13.97313447 109.95828971 13.95366625 111.9375 13.9375 C113.03964844 13.92589844 114.14179688 13.91429688 115.27734375 13.90234375 C118 14 118 14 119 15 C119.14803231 18.00471247 119.23514765 20.98930064 119.28125 23.99609375 C119.29965942 24.8999733 119.31806885 25.80385284 119.33703613 26.73512268 C119.39598205 29.63584686 119.44870809 32.53663096 119.5 35.4375 C119.56751295 39.24882686 119.64121024 43.05995922 119.71875 46.87109375 C119.73232544 47.75445908 119.74590088 48.6378244 119.7598877 49.54795837 C119.71885998 53.91162544 119.71885998 53.91162544 121 58 C115.06 58.495 115.06 58.495 109 59 C109 54.38 109 49.76 109 45 C108.01 45.66 107.02 46.32 106 47 C103.1809082 47.22705078 103.1809082 47.22705078 99.80078125 47.1953125 C98.71192627 47.19031738 97.62307129 47.18532227 96.5012207 47.18017578 C95.11894287 47.16196777 93.73666504 47.14375977 92.3125 47.125 C87.919375 47.08375 83.52625 47.0425 79 47 C79 33.47 79 19.94 79 6 C75.04 5.67 71.08 5.34 67 5 C67.495 5.99 67.495 5.99 68 7 C68.08977728 8.51164392 68.11757433 10.02720179 68.11352539 11.54150391 C68.11341209 12.95274033 68.11341209 12.95274033 68.11329651 14.39248657 C68.10813522 15.41023163 68.10297394 16.42797668 68.09765625 17.4765625 C68.0962413 18.51694672 68.09482635 19.55733093 68.09336853 20.62924194 C68.08775866 23.96119021 68.07520447 27.29307195 68.0625 30.625 C68.05748627 32.88020736 68.05292314 35.13541578 68.04882812 37.390625 C68.03778603 42.92710614 68.02103827 48.46354832 68 54 C66.02 54.33 64.04 54.66 62 55 C61.566875 54.236875 61.13375 53.47375 60.6875 52.6875 C59.23526673 50.08544292 59.23526673 50.08544292 57.60205078 48.78613281 C55.22176392 46.13234149 54.04526195 42.98384832 52.6796875 39.734375 C52.37555939 39.02275208 52.07143127 38.31112915 51.75808716 37.57794189 C51.11747689 36.07319854 50.48058571 34.56686717 49.84716797 33.05908203 C48.88230819 30.76735832 47.90103387 28.48318207 46.91796875 26.19921875 C46.29586654 24.73219807 45.67474104 23.26476275 45.0546875 21.796875 C44.76302704 21.12058044 44.47136658 20.44428589 44.17086792 19.74749756 C42.39210426 15.47059829 41.47314148 11.61182137 41 7 C38.24921116 6.08307039 36.64051087 5.89113917 33.8125 5.9375 C32.554375 5.958125 31.29625 5.97875 30 6 C30.05720215 7.00015137 30.1144043 8.00030273 30.17333984 9.03076172 C29.98561467 13.3294038 28.89641836 16.61579593 27.2265625 20.5078125 C26.94275726 21.19632294 26.65895203 21.88483337 26.36654663 22.59420776 C25.4641483 24.77610995 24.54501037 26.95047391 23.625 29.125 C23.01448922 30.59197575 22.40510349 32.05942026 21.796875 33.52734375 C20.67834532 36.22319582 19.55316516 38.91605313 18.42041016 41.60595703 C17.25346628 44.39434716 16.11204607 47.18938568 15 50 C13.68 49.67 12.36 49.34 11 49 C11 50.98 11 52.96 11 55 C7.7 55.99 4.4 56.98 1 58 C0.505 29.29 0.505 29.29 0 0 Z " fill="#B39668" transform="translate(38,74)"/>
<path d="M0 0 C26.58102418 -0.02332566 53.16204684 -0.04097754 79.74307919 -0.05181217 C92.0841754 -0.05697584 104.42526528 -0.06401987 116.76635742 -0.07543945 C127.51863454 -0.08538414 138.27090706 -0.09185291 149.02318865 -0.09408849 C154.72023211 -0.09539597 160.41726242 -0.09848413 166.11430168 -0.10573006 C171.469872 -0.11248688 176.82542367 -0.11461765 182.18099785 -0.11310768 C184.15273642 -0.11338416 186.12447558 -0.11539128 188.09621048 -0.11920547 C190.77586922 -0.12413745 193.45545639 -0.12300013 196.13511658 -0.12025452 C196.92595719 -0.12316736 197.7167978 -0.1260802 198.53160328 -0.12908131 C203.88587879 -0.11412121 203.88587879 -0.11412121 205 1 C205.07179964 2.51928038 205.08392007 4.04167482 205.0625 5.5625 C205.05347656 6.38878906 205.04445312 7.21507812 205.03515625 8.06640625 C205.01775391 9.02353516 205.01775391 9.02353516 205 10 C201.85804505 11.57097747 198.50175995 11.13306794 195.05282593 11.12025452 C193.80682096 11.12153615 193.80682096 11.12153615 192.53564417 11.12284368 C189.7364691 11.12449822 186.9373532 11.11897753 184.13818359 11.11352539 C182.13791404 11.11324349 180.13764438 11.11340131 178.13737488 11.1139679 C172.69344305 11.11425575 167.24953309 11.108361 161.80560637 11.10139394 C156.12143278 11.09515836 150.43725875 11.09455644 144.75308228 11.09336853 C133.98314837 11.09025582 123.21322457 11.08204324 112.44329512 11.07201904 C100.1847167 11.06085604 87.92613781 11.05534698 75.66755557 11.05032361 C50.44503144 11.03986058 25.22251628 11.02226229 0 11 C0 7.37 0 3.74 0 0 Z " fill="#07659D" transform="translate(18,169)"/>
<path d="M0 0 C-0.66 0 -1.32 0 -2 0 C-2 0.99 -2 1.98 -2 3 C-5.6441774 5.4294516 -7.71241272 5.16179575 -12 5 C-12 6.32 -12 7.64 -12 9 C54.99 9 121.98 9 191 9 C191 9.33 191 9.66 191 10 C155.03 10.33 119.06 10.66 82 11 C84.9195043 11.9731681 87.05444951 12.1929546 90.10546875 12.31640625 C91.08837891 12.35830078 92.07128906 12.40019531 93.08398438 12.44335938 C94.62022461 12.50233398 94.62022461 12.50233398 96.1875 12.5625 C97.22326172 12.60568359 98.25902344 12.64886719 99.32617188 12.69335938 C101.8839819 12.79944366 104.44188845 12.90150146 107 13 C107 12.34 107 11.68 107 11 C107.99 11 108.98 11 110 11 C110.495 11.495 110.495 11.495 111 12 C111 11.67 111 11.34 111 11 C117.27 11 123.54 11 130 11 C130 11.33 130 11.66 130 12 C136.93 12 143.86 12 151 12 C151 11.67 151 11.34 151 11 C153.31 11 155.62 11 158 11 C158 11.33 158 11.66 158 12 C160.64 12 163.28 12 166 12 C167.55134748 16.12681586 168.23867079 19.47998443 168.16699219 23.88183594 C168.15327576 25.01611023 168.13955933 26.15038452 168.12542725 27.31903076 C168.099505 28.52859436 168.07358276 29.73815796 168.046875 30.984375 C168.01645111 32.86228729 168.01645111 32.86228729 167.9854126 34.77813721 C167.93992226 37.41760587 167.89024301 40.05659093 167.83349609 42.69580078 C167.76128091 46.08072161 167.70742881 49.46564346 167.65903854 52.85097885 C167.6104516 56.08312722 167.54680487 59.31496882 167.484375 62.546875 C167.46654968 63.76453552 167.44872437 64.98219604 167.43035889 66.23675537 C167.39087128 67.91925385 167.39087128 67.91925385 167.35058594 69.63574219 C167.32155182 71.12083282 167.32155182 71.12083282 167.29193115 72.63592529 C167 75 167 75 165 77 C162.36279583 77.25168228 162.36279583 77.25168228 158.94670105 77.25396729 C157.6553978 77.25960693 156.36409454 77.26524658 155.03366089 77.27105713 C153.59429876 77.26716809 152.15493718 77.26307172 150.71557617 77.25878906 C149.20616995 77.26149789 147.69676505 77.26505821 146.18736267 77.26940918 C142.07980559 77.27855069 137.97234863 77.27498109 133.86478972 77.26865101 C129.56963179 77.26359732 125.2744826 77.26828096 120.97932434 77.27142334 C113.76216082 77.27506601 106.54503818 77.27025725 99.32788086 77.26074219 C90.98457435 77.24986941 82.64136567 77.25337343 74.29806155 77.264395 C67.13875815 77.27347407 59.9794842 77.27474974 52.8201769 77.26951766 C48.54266559 77.26639978 44.26520023 77.26598337 39.98769188 77.27259064 C35.96333941 77.27837204 31.93911282 77.27435264 27.91477394 77.26280212 C26.43815952 77.26015926 24.9615345 77.26091427 23.48492432 77.26532745 C21.4680367 77.2707991 19.45112593 77.26271848 17.43424988 77.25396729 C16.30580752 77.25321323 15.17736517 77.25245918 14.01472759 77.25168228 C10.9617784 76.9968091 8.75932927 76.29442926 6 75 C5.84639449 67.06395981 5.69821288 59.12784515 5.5570364 51.19157505 C5.49131675 47.50681052 5.42369926 43.82210084 5.35180664 40.13745117 C5.28254979 36.58436412 5.21819698 33.03121957 5.15730476 29.47797966 C5.13315075 28.11951384 5.10720242 26.76107875 5.07946587 25.40268135 C5.04104424 23.50625504 5.00948184 21.60969346 4.97827148 19.71313477 C4.95828598 18.63169693 4.93830048 17.55025909 4.91770935 16.43605042 C5 14 5 14 6 13 C7.55948542 12.84313751 9.12542668 12.74923361 10.69140625 12.68359375 C11.63564453 12.64169922 12.57988281 12.59980469 13.55273438 12.55664062 C14.54595703 12.51732422 15.53917969 12.47800781 16.5625 12.4375 C18.05813477 12.37272461 18.05813477 12.37272461 19.58398438 12.30664062 C22.0558415 12.20019702 24.5278031 12.09818072 27 12 C22.5628279 10.92234627 18.17863728 10.78325478 13.63671875 10.68359375 C12.84473587 10.66281265 12.05275299 10.64203156 11.23677063 10.62062073 C8.72043072 10.55552196 6.20399128 10.49642577 3.6875 10.4375 C1.97590139 10.394277 0.26431265 10.35066152 -1.44726562 10.30664062 C-5.63140984 10.19988153 -9.81565362 10.09850365 -14 10 C-14.66 8.68 -15.32 7.36 -16 6 C-13.9021477 4.79994469 -11.7979751 3.61497017 -9.6875 2.4375 C-8.79514648 1.92413086 -8.79514648 1.92413086 -7.88476562 1.40039062 C-3.33984375 -1.11328125 -3.33984375 -1.11328125 0 0 Z M42 10 C42.99 11.485 42.99 11.485 44 13 C46.66653905 13.36460453 46.66653905 13.36460453 49.625 13.1875 C50.62789062 13.16042969 51.63078125 13.13335937 52.6640625 13.10546875 C53.43492188 13.07066406 54.20578125 13.03585938 55 13 C55 12.34 55 11.68 55 11 C55.66 10.67 56.32 10.34 57 10 C52.05 10 47.1 10 42 10 Z M68 10 C68 10.33 68 10.66 68 11 C69.65 11 71.3 11 73 11 C73 10.67 73 10.34 73 10 C71.35 10 69.7 10 68 10 Z M62 12 C62 12.33 62 12.66 62 13 C64.31 13 66.62 13 69 13 C69 12.67 69 12.34 69 12 C66.69 12 64.38 12 62 12 Z M7 15 C7.33 34.14 7.66 53.28 8 73 C11.3 72.01 14.6 71.02 18 70 C18 68.02 18 66.04 18 64 C18.66 64.33 19.32 64.66 20 65 C19.505 67.475 19.505 67.475 19 70 C20.27875 70.20625 21.5575 70.4125 22.875 70.625 C23.59429687 70.74101562 24.31359375 70.85703125 25.0546875 70.9765625 C26.01761719 70.98816406 26.01761719 70.98816406 27 71 C29.31186831 68.68813169 29.42846605 67.64343674 30 64.5 C30.77777778 60.22222222 30.77777778 60.22222222 33 58 C35.06298828 57.77294922 35.06298828 57.77294922 37.5703125 57.8046875 C38.46621094 57.81113281 39.36210938 57.81757812 40.28515625 57.82421875 C41.22230469 57.84097656 42.15945312 57.85773438 43.125 57.875 C44.06988281 57.88402344 45.01476562 57.89304688 45.98828125 57.90234375 C48.32577292 57.92595478 50.66276123 57.95888484 53 58 C54.70656894 62.01668054 55.48898407 65.65636456 56 70 C59.3 70.33 62.6 70.66 66 71 C67.0745356 69.2236068 67.0745356 69.2236068 67 68 C67.86625 68.5259375 67.86625 68.5259375 68.75 69.0625 C71.39786506 70.16577711 72.33185326 69.80156509 75 69 C75.02529589 62.34310718 75.04284396 55.6862267 75.05493164 49.02929688 C75.05996926 46.76334164 75.06679952 44.49738967 75.07543945 42.23144531 C75.08752996 38.97980953 75.09323392 35.72821661 75.09765625 32.4765625 C75.10539818 30.94994492 75.10539818 30.94994492 75.11329651 29.39248657 C75.11340981 27.98125015 75.11340981 27.98125015 75.11352539 26.54150391 C75.115746 25.71099518 75.11796661 24.88048645 75.12025452 24.02481079 C75.12909182 21.93035036 75.12909182 21.93035036 74 20 C77.96 20.33 81.92 20.66 86 21 C86 34.53 86 48.06 86 62 C90.393125 62.04125 94.78625 62.0825 99.3125 62.125 C100.69477783 62.14320801 102.07705566 62.16141602 103.5012207 62.18017578 C104.59007568 62.1851709 105.67893066 62.19016602 106.80078125 62.1953125 C107.91622314 62.20578613 109.03166504 62.21625977 110.1809082 62.22705078 C113.20678201 62.21322653 113.20678201 62.21322653 116 60 C116 64.62 116 69.24 116 74 C115.34 74 114.68 74 114 74 C114 73.34 114 72.68 114 72 C101.46 72 88.92 72 76 72 C79.26699134 75.26699134 82.26257546 75.11583194 86.70401001 75.12442017 C87.47868622 75.12082489 88.25336243 75.11722961 89.05151367 75.11352539 C89.87125168 75.11367142 90.69098969 75.11381744 91.53556824 75.1139679 C94.24639528 75.11327096 96.9571537 75.10548878 99.66796875 75.09765625 C101.54698143 75.09579129 103.4259946 75.09436776 105.30500793 75.09336853 C110.25175315 75.08954948 115.19846902 75.07972438 120.14520264 75.06866455 C126.07983545 75.05663931 132.01447806 75.05204528 137.94911957 75.04621124 C146.96610012 75.03651233 155.98301629 75.01735148 165 75 C165 55.2 165 35.4 165 15 C112.86 15 60.72 15 7 15 Z M76 21 C75.97535799 27.96003966 75.95716778 34.92005416 75.94506836 41.88012695 C75.94002659 44.24992312 75.93319335 46.61971615 75.92456055 48.98950195 C75.9124881 52.38754039 75.90677029 55.78553785 75.90234375 59.18359375 C75.89718246 60.25024765 75.89202118 61.31690155 75.88670349 62.4158783 C75.88662796 63.39681961 75.88655243 64.37776093 75.88647461 65.38842773 C75.884254 66.25668686 75.88203339 67.12494598 75.87974548 68.01951599 C75.78045333 70.00143681 75.78045333 70.00143681 77 71 C79.72724279 71.10099488 82.42862523 71.13970529 85.15625 71.1328125 C86.38245056 71.13424759 86.38245056 71.13424759 87.63342285 71.13571167 C89.36515378 71.13639345 91.09688724 71.13453929 92.82861328 71.13037109 C95.48866482 71.12502279 98.1485475 71.13031612 100.80859375 71.13671875 C102.48697954 71.13605797 104.16536523 71.1347768 105.84375 71.1328125 C106.64478149 71.13483673 107.44581299 71.13686096 108.27111816 71.13894653 C111.93582301 71.47213668 111.93582301 71.47213668 115 70 C115 67.69 115 65.38 115 63 C105.1 63 95.2 63 85 63 C85 49.14 85 35.28 85 21 C82.03 21 79.06 21 76 21 Z " fill="#B19B7B" transform="translate(31,59)"/>
<path d="M0 0 C0.70553574 0.00514356 1.41107147 0.01028713 2.13798708 0.01558656 C2.88628044 0.01317214 3.63457381 0.01075772 4.40554273 0.00827014 C6.92605894 0.00261084 9.44632421 0.01131293 11.96682924 0.01990479 C13.76843517 0.01883247 15.57004076 0.01689454 17.37164491 0.01415223 C22.2743637 0.0092931 27.17699187 0.01697259 32.0796997 0.02710527 C37.20019188 0.03586718 42.32068107 0.0341287 47.44117922 0.03374451 C56.04040227 0.03468192 64.6395901 0.04337668 73.2388019 0.05701417 C83.19538935 0.07274549 93.15193821 0.07801215 103.1085372 0.07727861 C112.66920095 0.07666926 122.22985206 0.08176589 131.79051203 0.09007043 C135.86746437 0.09361033 139.94441225 0.09543468 144.02136606 0.09596413 C148.81720332 0.09696523 153.61300791 0.10304261 158.4088344 0.11313027 C160.17416427 0.11606266 161.9394979 0.11727916 163.70483011 0.11670274 C166.10413386 0.11621558 168.50334466 0.1218326 170.90263551 0.12911195 C171.61040197 0.12756334 172.31816843 0.12601474 173.04738235 0.12441921 C177.84264085 0.14864609 177.84264085 0.14864609 178.95681947 1.26282471 C178.95681947 4.56282471 178.95681947 7.86282471 178.95681947 11.26282471 C117.57681947 11.26282471 56.19681947 11.26282471 -7.04318053 11.26282471 C-7.04318053 0.05054431 -7.04318053 0.05054431 0 0 Z " fill="#0666A1" transform="translate(33.04318052530289,155.7371752858162)"/>
<path d="M0 0 C26.58102418 -0.02332566 53.16204684 -0.04097754 79.74307919 -0.05181217 C92.0841754 -0.05697584 104.42526528 -0.06401987 116.76635742 -0.07543945 C127.51863454 -0.08538414 138.27090706 -0.09185291 149.02318865 -0.09408849 C154.72023211 -0.09539597 160.41726242 -0.09848413 166.11430168 -0.10573006 C171.469872 -0.11248688 176.82542367 -0.11461765 182.18099785 -0.11310768 C184.15273642 -0.11338416 186.12447558 -0.11539128 188.09621048 -0.11920547 C190.77586922 -0.12413745 193.45545639 -0.12300013 196.13511658 -0.12025452 C196.92595719 -0.12316736 197.7167978 -0.1260802 198.53160328 -0.12908131 C203.88587879 -0.11412121 203.88587879 -0.11412121 205 1 C205.07179964 2.51928038 205.08392007 4.04167482 205.0625 5.5625 C205.05347656 6.38878906 205.04445312 7.21507812 205.03515625 8.06640625 C205.01775391 9.02353516 205.01775391 9.02353516 205 10 C201.85804505 11.57097747 198.50175995 11.13306794 195.05282593 11.12025452 C193.80682096 11.12153615 193.80682096 11.12153615 192.53564417 11.12284368 C189.7364691 11.12449822 186.9373532 11.11897753 184.13818359 11.11352539 C182.13791404 11.11324349 180.13764438 11.11340131 178.13737488 11.1139679 C172.69344305 11.11425575 167.24953309 11.108361 161.80560637 11.10139394 C156.12143278 11.09515836 150.43725875 11.09455644 144.75308228 11.09336853 C133.98314837 11.09025582 123.21322457 11.08204324 112.44329512 11.07201904 C100.1847167 11.06085604 87.92613781 11.05534698 75.66755557 11.05032361 C50.44503144 11.03986058 25.22251628 11.02226229 0 11 C2.51854674 8.48145326 4.05740227 8.76136184 7.49278557 8.74183738 C8.26514955 8.74766307 9.03751353 8.75348875 9.83328247 8.75949097 C11.06091145 8.75692769 11.06091145 8.75692769 12.31334102 8.75431263 C15.07112345 8.75100366 17.82866556 8.76204447 20.58642578 8.77294922 C22.55713902 8.77351303 24.52785268 8.77319736 26.49856567 8.77206421 C31.86194907 8.77148852 37.22524367 8.78327777 42.58860636 8.79721212 C48.18869487 8.80968351 53.78878524 8.81088714 59.3888855 8.81326294 C69.99946241 8.8194883 80.60999828 8.83591336 91.22055709 8.85596192 C103.29775611 8.87828812 115.37495706 8.88930609 127.45217156 8.89935279 C152.30147049 8.9202787 177.15073295 8.95547514 202 9 C202 6.69 202 4.38 202 2 C135.34 1.67 68.68 1.34 0 1 C0 0.67 0 0.34 0 0 Z " fill="#3B7FA7" transform="translate(18,169)"/>
<path d="M0 0 C-0.66 0 -1.32 0 -2 0 C-2 0.99 -2 1.98 -2 3 C-5.6441774 5.4294516 -7.71241272 5.16179575 -12 5 C-12 6.32 -12 7.64 -12 9 C54.99 9 121.98 9 191 9 C191 9.33 191 9.66 191 10 C155.03 10.33 119.06 10.66 82 11 C84.9195043 11.9731681 87.05444951 12.1929546 90.10546875 12.31640625 C91.08837891 12.35830078 92.07128906 12.40019531 93.08398438 12.44335938 C94.62022461 12.50233398 94.62022461 12.50233398 96.1875 12.5625 C97.22326172 12.60568359 98.25902344 12.64886719 99.32617188 12.69335938 C101.8839819 12.79944366 104.44188845 12.90150146 107 13 C107 12.34 107 11.68 107 11 C107.99 11 108.98 11 110 11 C110.495 11.495 110.495 11.495 111 12 C111 11.67 111 11.34 111 11 C117.27 11 123.54 11 130 11 C130 11.33 130 11.66 130 12 C136.93 12 143.86 12 151 12 C151 11.67 151 11.34 151 11 C153.31 11 155.62 11 158 11 C158 11.33 158 11.66 158 12 C160.64 12 163.28 12 166 12 C166 12.66 166 13.32 166 14 C113.53 14 61.06 14 7 14 C7 34.13 7 54.26 7 75 C6.67 75 6.34 75 6 75 C5.84639449 67.06395981 5.69821288 59.12784515 5.5570364 51.19157505 C5.49131675 47.50681052 5.42369926 43.82210084 5.35180664 40.13745117 C5.28254979 36.58436412 5.21819698 33.03121957 5.15730476 29.47797966 C5.13315075 28.11951384 5.10720242 26.76107875 5.07946587 25.40268135 C5.04104424 23.50625504 5.00948184 21.60969346 4.97827148 19.71313477 C4.95828598 18.63169693 4.93830048 17.55025909 4.91770935 16.43605042 C5 14 5 14 6 13 C7.55948542 12.84313751 9.12542668 12.74923361 10.69140625 12.68359375 C11.63564453 12.64169922 12.57988281 12.59980469 13.55273438 12.55664062 C14.54595703 12.51732422 15.53917969 12.47800781 16.5625 12.4375 C18.05813477 12.37272461 18.05813477 12.37272461 19.58398438 12.30664062 C22.0558415 12.20019702 24.5278031 12.09818072 27 12 C22.5628279 10.92234627 18.17863728 10.78325478 13.63671875 10.68359375 C12.84473587 10.66281265 12.05275299 10.64203156 11.23677063 10.62062073 C8.72043072 10.55552196 6.20399128 10.49642577 3.6875 10.4375 C1.97590139 10.394277 0.26431265 10.35066152 -1.44726562 10.30664062 C-5.63140984 10.19988153 -9.81565362 10.09850365 -14 10 C-14.66 8.68 -15.32 7.36 -16 6 C-13.9021477 4.79994469 -11.7979751 3.61497017 -9.6875 2.4375 C-8.79514648 1.92413086 -8.79514648 1.92413086 -7.88476562 1.40039062 C-3.33984375 -1.11328125 -3.33984375 -1.11328125 0 0 Z M42 10 C42.99 11.485 42.99 11.485 44 13 C46.66653905 13.36460453 46.66653905 13.36460453 49.625 13.1875 C50.62789062 13.16042969 51.63078125 13.13335937 52.6640625 13.10546875 C53.43492188 13.07066406 54.20578125 13.03585938 55 13 C55 12.34 55 11.68 55 11 C55.66 10.67 56.32 10.34 57 10 C52.05 10 47.1 10 42 10 Z M68 10 C68 10.33 68 10.66 68 11 C69.65 11 71.3 11 73 11 C73 10.67 73 10.34 73 10 C71.35 10 69.7 10 68 10 Z M62 12 C62 12.33 62 12.66 62 13 C64.31 13 66.62 13 69 13 C69 12.67 69 12.34 69 12 C66.69 12 64.38 12 62 12 Z " fill="#D3FEFE" transform="translate(31,59)"/>
<path d="M0 0 C0.70553574 0.00514356 1.41107147 0.01028713 2.13798708 0.01558656 C2.88628044 0.01317214 3.63457381 0.01075772 4.40554273 0.00827014 C6.92605894 0.00261084 9.44632421 0.01131293 11.96682924 0.01990479 C13.76843517 0.01883247 15.57004076 0.01689454 17.37164491 0.01415223 C22.2743637 0.0092931 27.17699187 0.01697259 32.0796997 0.02710527 C37.20019188 0.03586718 42.32068107 0.0341287 47.44117922 0.03374451 C56.04040227 0.03468192 64.6395901 0.04337668 73.2388019 0.05701417 C83.19538935 0.07274549 93.15193821 0.07801215 103.1085372 0.07727861 C112.66920095 0.07666926 122.22985206 0.08176589 131.79051203 0.09007043 C135.86746437 0.09361033 139.94441225 0.09543468 144.02136606 0.09596413 C148.81720332 0.09696523 153.61300791 0.10304261 158.4088344 0.11313027 C160.17416427 0.11606266 161.9394979 0.11727916 163.70483011 0.11670274 C166.10413386 0.11621558 168.50334466 0.1218326 170.90263551 0.12911195 C171.61040197 0.12756334 172.31816843 0.12601474 173.04738235 0.12441921 C177.84264085 0.14864609 177.84264085 0.14864609 178.95681947 1.26282471 C178.95681947 4.56282471 178.95681947 7.86282471 178.95681947 11.26282471 C117.57681947 11.26282471 56.19681947 11.26282471 -7.04318053 11.26282471 C-7.04318053 0.05054431 -7.04318053 0.05054431 0 0 Z M-4.04318053 1.26282471 C-5.3975772 3.97161807 -5.10819503 6.27215739 -5.04318053 9.26282471 C18.37409048 9.28616316 41.79135975 9.30380855 65.20864004 9.31463689 C76.08116539 9.31979783 86.95368352 9.3268367 97.82620424 9.33826417 C107.30034356 9.34821715 116.77447766 9.35467961 126.24862206 9.35691321 C131.26720902 9.35821927 136.28578102 9.36129854 141.30436319 9.36855477 C146.02465992 9.37532465 150.74493548 9.37743969 155.4652366 9.3759324 C157.20070187 9.37620829 158.93616782 9.37820768 160.67162889 9.38203019 C163.03529883 9.38698251 165.39888815 9.38581726 167.76255983 9.38307923 C168.454192 9.38599207 169.14582417 9.38890491 169.85841489 9.39190602 C172.84716246 9.38250494 175.09424718 9.21701548 177.95681947 8.26282471 C177.95681947 6.28282471 177.95681947 4.30282471 177.95681947 2.26282471 C173.79918836 1.26031693 169.90653082 1.13954356 165.6359424 1.1425702 C164.90888151 1.14171577 164.18182062 1.14086135 163.43272758 1.13998103 C161.00217501 1.13833698 158.57169183 1.14382998 156.14114565 1.14929932 C154.39658796 1.14958145 152.65203016 1.14942296 150.90747255 1.14885682 C146.1744381 1.14856985 141.44142899 1.15445039 136.70840043 1.16143078 C131.76096008 1.167681 126.81351915 1.16826944 121.86607546 1.16945618 C112.49871302 1.17256457 103.13136225 1.18077134 93.76400495 1.19080567 C83.09903908 1.20198209 72.43407266 1.20748112 61.76910239 1.21250111 C39.83166824 1.22295434 17.89424459 1.24054427 -4.04318053 1.26282471 Z " fill="#367DA2" transform="translate(33.04318052530289,155.7371752858162)"/>
<path d="M0 0 C21.75682281 -0.02332684 43.51364357 -0.04097812 65.27047634 -0.05181217 C75.37180943 -0.05697559 85.47313477 -0.06401915 95.57446289 -0.07543945 C104.37544464 -0.0853849 113.17642078 -0.09185309 121.97740799 -0.09408849 C126.64046267 -0.09539584 131.30350128 -0.09848318 135.96655083 -0.10573006 C140.35032366 -0.11248809 144.73407371 -0.11461741 149.11785126 -0.11310768 C150.73160234 -0.11338411 152.34535413 -0.11539052 153.95910072 -0.11920547 C156.1526889 -0.12413934 158.3461897 -0.12299944 160.53977966 -0.12025452 C161.7703733 -0.12117631 163.00096693 -0.1220981 164.26885128 -0.12304783 C167 0 167 0 168 1 C168.0979057 2.49738124 168.12974864 3.99942892 168.125 5.5 C168.12757813 6.3146875 168.13015625 7.129375 168.1328125 7.96875 C168 10 168 10 167 11 C164.84840274 11.096937 162.69355889 11.12186783 160.53977966 11.12025452 C159.85697199 11.12110894 159.17416432 11.12196337 158.47066551 11.12284368 C156.16588309 11.12450043 153.86117228 11.11897397 151.55639648 11.11352539 C149.91094972 11.11324353 148.26550284 11.11340122 146.62005615 11.1139679 C142.13884241 11.11425593 137.65765519 11.10835821 133.17644763 11.10139394 C128.49857895 11.09516142 123.82070972 11.09455668 119.14283752 11.09336853 C110.27824832 11.09025491 101.41367138 11.08204111 92.54908758 11.07201904 C82.45977798 11.06085885 72.3704678 11.05534769 62.28115356 11.05032361 C41.52076218 11.03985852 20.76038186 11.02225849 0 11 C-0.84098656 6.98195309 -1.05404945 3.98196457 0 0 Z M1 1 C1 3.97 1 6.94 1 10 C20.88911786 10.04679727 40.77822449 10.08202664 60.66738605 10.10362434 C69.90303199 10.11392072 79.13864365 10.12794962 88.37426758 10.15087891 C96.42749578 10.17086307 104.48069915 10.18372834 112.53395146 10.18817699 C116.79493136 10.19077588 121.05584021 10.19685001 125.31679726 10.21146011 C129.33455547 10.22512357 133.35221397 10.22920508 137.36999321 10.22621536 C138.83764311 10.22676163 140.30529665 10.23068656 141.77292633 10.23841095 C150.0808806 10.27995999 157.88813006 9.86784539 166 8 C166 6.02 166 4.04 166 2 C84.325 1.505 84.325 1.505 1 1 Z " fill="#367EA6" transform="translate(35,143)"/>
<path d="M0 0 C52.8 0 105.6 0 160 0 C160.88887506 3.55550023 161.10393776 6.0459745 161.0534668 9.65478516 C161.0398259 10.78921051 161.026185 11.92363586 161.01213074 13.09243774 C160.99136978 14.31232391 160.97060883 15.53221008 160.94921875 16.7890625 C160.9303511 18.04383392 160.91148346 19.29860535 160.89204407 20.59140015 C160.85017896 23.24266434 160.80591965 25.89377105 160.75805664 28.54492188 C160.69730234 31.94563356 160.6504686 35.34638099 160.60722637 38.74735451 C160.56343152 41.9905737 160.50548711 45.23353939 160.44921875 48.4765625 C160.43453049 49.70049713 160.41984222 50.92443176 160.40470886 52.18545532 C160.38161148 53.31357635 160.3585141 54.44169739 160.3347168 55.60400391 C160.31837692 56.60009674 160.30203705 57.59618958 160.28520203 58.62246704 C160 61 160 61 158 63 C155.36000252 63.25168228 155.36000252 63.25168228 151.93997192 63.25396729 C150.0008493 63.26242676 150.0008493 63.26242676 148.02255249 63.27105713 C146.58160345 63.26716811 145.14065496 63.26307175 143.69970703 63.25878906 C142.18867829 63.26149787 140.67765088 63.26505817 139.16662598 63.26940918 C135.05500396 63.2785502 130.94348199 63.2749815 126.83185816 63.26865101 C122.53356304 63.263598 118.23527665 63.26828068 113.9369812 63.27142334 C106.71562152 63.27506582 99.4943027 63.27025735 92.27294922 63.26074219 C83.92167033 63.24986532 75.57048915 63.25337649 67.21921265 63.264395 C60.05482939 63.2734697 52.89047556 63.27475201 45.7260884 63.26951766 C41.44469659 63.26639791 37.1633507 63.2659886 32.88196182 63.27259064 C28.85515012 63.27836583 24.82846435 63.27436402 20.80166626 63.26280212 C19.32301925 63.26015611 17.84436165 63.26091964 16.36571884 63.26532745 C14.34848151 63.27078657 12.33122105 63.26272926 10.31399536 63.25396729 C8.61994914 63.25283621 8.61994914 63.25283621 6.89167976 63.25168228 C4 63 4 63 0 61 C52.14 61 104.28 61 158 61 C158 41.2 158 21.4 158 1 C105.86 1 53.72 1 0 1 C0 0.67 0 0.34 0 0 Z " fill="#DBCDB3" transform="translate(38,73)"/>
<path d="M0 0 C4.62 1.98 9.24 3.96 14 6 C14 6.99 14 7.98 14 9 C-52.99 9 -119.98 9 -189 9 C-189 7.68 -189 6.36 -189 5 C-187.35 5 -185.7 5 -184 5 C-184 5.66 -184 6.32 -184 7 C-182.25357964 6.99666908 -182.25357964 6.99666908 -180.47187805 6.99327087 C-165.41876028 6.96553537 -150.3656394 6.94807351 -135.3125 6.9375 C-134.10251846 6.93664398 -132.89253693 6.93578796 -131.64588928 6.93490601 C-96.67742593 6.91307991 -61.71566886 7.04717195 -26.75 7.5 C-25.8260355 7.51195782 -24.902071 7.52391563 -23.95010757 7.53623581 C-12.96656736 7.67939109 -1.98320709 7.83322621 9 8 C7.71502463 5.43004926 6.50087627 5.09565537 3.9375 3.875 C3.20402344 3.52179687 2.47054687 3.16859375 1.71484375 2.8046875 C1.14894531 2.53914063 0.58304688 2.27359375 0 2 C0 1.34 0 0.68 0 0 Z " fill="#1A6287" transform="translate(208,59)"/>
<path d="M0 0 C2.77245014 -0.13487595 5.53837088 -0.23400807 8.3125 -0.3125 C9.49102539 -0.3753418 9.49102539 -0.3753418 10.69335938 -0.43945312 C12.89824803 -0.48636565 14.84377392 -0.46819765 17 0 C19.56414133 2.91917629 19.96798439 4.43439086 20.1875 8.3125 C20.0946875 9.6428125 20.0946875 9.6428125 20 11 C19.34 11 18.68 11 18 11 C18 11.66 18 12.32 18 13 C18.66 13.33 19.32 13.66 20 14 C16.32806862 15.22397713 12.88916441 15.26111238 9.0625 15.3125 C8.34642578 15.34150391 7.63035156 15.37050781 6.89257812 15.40039062 C3.40454694 15.4424151 1.37710522 15.26650337 -1.50390625 13.23046875 C-3 11 -3 11 -3 7 C-2.17026066 4.57004908 -1.07873517 2.33725954 0 0 Z " fill="#B29669" transform="translate(66,118)"/>
<path d="M0 0 C4.29 0 8.58 0 13 0 C12.67 13.86 12.34 27.72 12 42 C16.393125 41.855625 20.78625 41.71125 25.3125 41.5625 C26.69477783 41.51939697 28.07705566 41.47629395 29.5012207 41.43188477 C30.59007568 41.39377686 31.67893066 41.35566895 32.80078125 41.31640625 C34.47394409 41.26141968 34.47394409 41.26141968 36.1809082 41.20532227 C39.07873571 41.11068791 39.07873571 41.11068791 42 40 C42 44.62 42 49.24 42 54 C41.34 54 40.68 54 40 54 C40 53.34 40 52.68 40 52 C26.47 52 12.94 52 -1 52 C-1 51.34 -1 50.68 -1 50 C-0.34 50 0.32 50 1 50 C0.67 33.5 0.34 17 0 0 Z M2 1 C1.97535799 7.96003966 1.95716778 14.92005416 1.94506836 21.88012695 C1.94002659 24.24992312 1.93319335 26.61971615 1.92456055 28.98950195 C1.9124881 32.38754039 1.90677029 35.78553785 1.90234375 39.18359375 C1.89718246 40.25024765 1.89202118 41.31690155 1.88670349 42.4158783 C1.88662796 43.39681961 1.88655243 44.37776093 1.88647461 45.38842773 C1.884254 46.25668686 1.88203339 47.12494598 1.87974548 48.01951599 C1.78045333 50.00143681 1.78045333 50.00143681 3 51 C5.72724279 51.10099488 8.42862523 51.13970529 11.15625 51.1328125 C12.38245056 51.13424759 12.38245056 51.13424759 13.63342285 51.13571167 C15.36515378 51.13639345 17.09688724 51.13453929 18.82861328 51.13037109 C21.48866482 51.12502279 24.1485475 51.13031612 26.80859375 51.13671875 C28.48697954 51.13605797 30.16536523 51.1347768 31.84375 51.1328125 C32.64478149 51.13483673 33.44581299 51.13686096 34.27111816 51.13894653 C37.93582301 51.47213668 37.93582301 51.47213668 41 50 C41 47.69 41 45.38 41 43 C31.1 43 21.2 43 11 43 C11 29.14 11 15.28 11 1 C8.03 1 5.06 1 2 1 Z " fill="#E5DCC5" transform="translate(105,79)"/>
<path d="M0 0 C0.99 0 1.98 0 3 0 C3.495 0.495 3.495 0.495 4 1 C4 0.67 4 0.34 4 0 C10.27 0 16.54 0 23 0 C23 0.33 23 0.66 23 1 C29.93 1 36.86 1 44 1 C44 0.67 44 0.34 44 0 C46.31 0 48.62 0 51 0 C51 0.33 51 0.66 51 1 C53.64 1 56.28 1 59 1 C59 1.66 59 2.32 59 3 C6.53 3 -45.94 3 -100 3 C-100 23.13 -100 43.26 -100 64 C-100.33 64 -100.66 64 -101 64 C-101.15360551 56.06395981 -101.30178712 48.12784515 -101.4429636 40.19157505 C-101.50868325 36.50681052 -101.57630074 32.82210084 -101.64819336 29.13745117 C-101.71745021 25.58436412 -101.78180302 22.03121957 -101.84269524 18.47797966 C-101.86684925 17.11951384 -101.89279758 15.76107875 -101.92053413 14.40268135 C-101.95895576 12.50625504 -101.99051816 10.60969346 -102.02172852 8.71313477 C-102.05170677 7.09097801 -102.05170677 7.09097801 -102.08229065 5.43605042 C-102 3 -102 3 -101 2 C-97.86440114 1.90465042 -94.75086387 1.87449121 -91.61499023 1.88647461 C-90.13710526 1.88625557 -90.13710526 1.88625557 -88.62936401 1.8860321 C-85.35575193 1.88673168 -82.08219596 1.89452615 -78.80859375 1.90234375 C-76.54557832 1.90420777 -74.28256249 1.90563175 -72.01954651 1.90663147 C-66.05021052 1.9104579 -60.08089868 1.92028925 -54.11157227 1.93133545 C-48.02555671 1.94154688 -41.93953727 1.94612851 -35.85351562 1.95117188 C-23.90233311 1.96191141 -11.95116856 1.97898932 0 2 C0 1.34 0 0.68 0 0 Z " fill="#F9EAD8" transform="translate(138,70)"/>
<path d="M0 0 C22.99157815 -0.02335108 45.98315434 -0.04099005 68.97474194 -0.05181217 C79.64991337 -0.05697042 90.32507744 -0.06400419 101.00024414 -0.07543945 C110.30373763 -0.08540064 119.60722579 -0.09185686 128.91072446 -0.09408849 C133.83771348 -0.09539315 138.76468724 -0.09846362 143.69167137 -0.10573006 C148.3282553 -0.11251286 152.96481768 -0.11461233 157.6014061 -0.11310768 C159.30378016 -0.11338299 161.00615493 -0.11537471 162.7085247 -0.11920547 C165.03208398 -0.12417799 167.35556178 -0.12298511 169.67912292 -0.12025452 C170.97977283 -0.12117631 172.28042273 -0.1220981 173.62048626 -0.12304783 C176.55323134 -0.01626681 179.15524719 0.31405968 182 1 C182 2.98 182 4.96 182 7 C181.01 6.505 181.01 6.505 180 6 C180.33 4.68 180.66 3.36 181 2 C158.00844184 1.92994683 135.01690126 1.87702992 112.02525806 1.84456348 C101.35005439 1.82908868 90.674917 1.80798742 79.99975586 1.77368164 C70.69626197 1.74379809 61.39281608 1.72442946 52.08927554 1.71773452 C47.16223281 1.7138205 42.23532739 1.70460921 37.30832863 1.68280983 C32.67169919 1.66246121 28.03526376 1.65616292 23.3985939 1.66067696 C21.69621031 1.65985103 19.9938203 1.65387569 18.2914753 1.64238358 C15.96770378 1.62746467 13.64466544 1.63104387 11.32087708 1.63923645 C10.02022717 1.63647107 8.71957727 1.63370569 7.37951374 1.63085651 C3.79515689 2.02237496 1.89370245 2.90677012 -1 5 C-0.67 3.35 -0.34 1.7 0 0 Z " fill="#0F6393" transform="translate(29,157)"/>
<path d="M0 0 C1.32 0 2.64 0 4 0 C4.33 2.31 4.66 4.62 5 7 C5.64476288 6.99777939 6.28952576 6.99555878 6.9538269 6.99327087 C15.59420324 6.96510136 24.23458558 6.94778668 32.875 6.9375 C33.94555759 6.93621597 33.94555759 6.93621597 35.03774261 6.93490601 C62.06971183 6.90642222 89.09546742 7.15007253 116.125 7.5 C117.04904381 7.51195782 117.97308762 7.52391563 118.92513275 7.53623581 C130.28352004 7.6838569 141.64180257 7.83843579 153 8 C153 8.33 153 8.66 153 9 C102.51 9 52.02 9 0 9 C0 6.03 0 3.06 0 0 Z " fill="#12628F" transform="translate(36,144)"/>
<path d="M0 0 C0.99 0 1.98 0 3 0 C4.03227862 2.60014527 5.05105152 5.20426369 6.0625 7.8125 C6.35705078 8.55048828 6.65160156 9.28847656 6.95507812 10.04882812 C9.11328125 15.66015625 9.11328125 15.66015625 8 19 C3.38 19 -1.24 19 -6 19 C-7 17 -7 17 -6.47094727 15.21240234 C-6.17244873 14.51066895 -5.8739502 13.80893555 -5.56640625 13.0859375 C-5.24736328 12.32539062 -4.92832031 11.56484375 -4.59960938 10.78125 C-4.25736328 9.9871875 -3.91511719 9.193125 -3.5625 8.375 C-3.22412109 7.57320313 -2.88574219 6.77140625 -2.53710938 5.9453125 C-1.69833222 3.96060036 -0.85004755 1.97991125 0 0 Z " fill="#B19B7B" transform="translate(72,92)"/>
<path d="M0 0 C12.54 0 25.08 0 38 0 C38 0.66 38 1.32 38 2 C39.41055664 1.88410522 39.41055664 1.88410522 40.84960938 1.76586914 C51.44637709 0.96238938 61.88728412 1.04874366 72.5 1.4375 C74.1132584 1.49092883 75.72653985 1.54366633 77.33984375 1.59570312 C81.22687299 1.72254383 85.11347487 1.85858436 89 2 C89 2.33 89 2.66 89 3 C78.13413203 3.04634574 67.26828758 3.08188063 56.40234089 3.10362434 C51.35681478 3.11406036 46.31135632 3.12821632 41.26586914 3.15087891 C36.39646426 3.17261365 31.52712444 3.18457 26.65767479 3.18975449 C24.80014204 3.1934491 22.94261285 3.20066371 21.0851078 3.21146011 C18.48284848 3.22598336 15.8808578 3.22797759 13.27856445 3.22705078 C12.5110788 3.23424133 11.74359314 3.24143188 10.95285034 3.24884033 C6.85702771 3.23306149 3.68486501 2.83223702 0 1 C0 0.67 0 0.34 0 0 Z " fill="#B09A7B" transform="translate(107,131)"/>
<path d="M0 0 C0.99 0 1.98 0 3 0 C3 13.53 3 27.06 3 41 C6.3 41 9.6 41 13 41 C13 27.47 13 13.94 13 0 C13.33 0 13.66 0 14 0 C14.33 14.19 14.66 28.38 15 43 C10.71 43 6.42 43 2 43 C-0.17782681 40.82217319 0.73910084 35.74896922 0.68359375 32.71484375 C0.66281265 31.78402481 0.64203156 30.85320587 0.62062073 29.8941803 C0.55502069 26.90869818 0.49619198 23.92312516 0.4375 20.9375 C0.3943247 18.91861024 0.35071075 16.8997298 0.30664062 14.88085938 C0.19932871 9.92066703 0.09809112 4.96038291 0 0 Z " fill="#AD9770" transform="translate(156,88)"/>
<path d="M0 0 C-0.66 0 -1.32 0 -2 0 C-2 0.99 -2 1.98 -2 3 C-5.6441774 5.4294516 -7.71241272 5.16179575 -12 5 C-12 6.32 -12 7.64 -12 9 C6.15 9 24.3 9 43 9 C43 9.33 43 9.66 43 10 C45.475 10.495 45.475 10.495 48 11 C44.84248565 12.85045027 42.51967023 13.27125172 38.875 13.25 C37.57175781 13.25773437 37.57175781 13.25773437 36.2421875 13.265625 C33.59327252 13.04860546 31.39047188 12.63410327 28.828125 12.0234375 C20.63735613 10.30584508 12.20957506 10.52746174 3.875 10.375 C2.13800284 10.33674586 0.40102315 10.29769003 -1.3359375 10.2578125 C-5.55714705 10.16262741 -9.778445 10.07830663 -14 10 C-14.66 8.68 -15.32 7.36 -16 6 C-13.9021477 4.79994469 -11.7979751 3.61497017 -9.6875 2.4375 C-8.79514648 1.92413086 -8.79514648 1.92413086 -7.88476562 1.40039062 C-3.33984375 -1.11328125 -3.33984375 -1.11328125 0 0 Z " fill="#D9FEFE" transform="translate(31,59)"/>
<path d="M0 0 C0 1.32 0 2.64 0 4 C-1.2375 4.144375 -2.475 4.28875 -3.75 4.4375 C-6.56504499 4.78688502 -9.2701497 5.20379366 -12 6 C-12 6.66 -12 7.32 -12 8 C-14.0624636 8.5156159 -16.09073927 9.0155553 -18.1875 9.375 C-18.785625 9.58125 -19.38375 9.7875 -20 10 C-20.33 10.99 -20.66 11.98 -21 13 C-22.258125 13.04125 -23.51625 13.0825 -24.8125 13.125 C-30.17599574 13.66813881 -34.00789474 15.99484317 -38.51953125 18.8203125 C-41.37572259 20.17869011 -42.09986726 19.90185417 -45 19 C-44.17145508 18.60844727 -44.17145508 18.60844727 -43.32617188 18.20898438 C-33.18711451 13.41246262 -23.05878627 8.60664689 -13.06445312 3.51367188 C-3.70088333 -1.23362778 -3.70088333 -1.23362778 0 0 Z " fill="#75AACA" transform="translate(122,16)"/>
<path d="M0 0 C3.46998053 0.58641639 6.35350632 1.47603032 9.51953125 3.00390625 C10.36990967 3.41125 11.22028809 3.81859375 12.09643555 4.23828125 C12.99273682 4.67527344 13.88903809 5.11226562 14.8125 5.5625 C16.19852417 6.23152344 16.19852417 6.23152344 17.61254883 6.9140625 C20.41187086 8.26897007 23.20646104 9.63321484 26 11 C26.82854492 11.40331543 27.65708984 11.80663086 28.51074219 12.22216797 C30.73935027 13.30876449 32.96435538 14.40227543 35.1875 15.5 C35.85177002 15.82556885 36.51604004 16.1511377 37.20043945 16.48657227 C39.82684762 17.7975143 41.90923041 18.90923041 44 21 C42.1875 21.6875 42.1875 21.6875 40 22 C38.625 20.75 38.625 20.75 37 19 C32.62374603 16.41403174 28.98701671 15.68786437 24 15 C21.27452492 14.11386135 18.66055107 13.0735557 16 12 C16 11.34 16 10.68 16 10 C15.21625 10.20625 14.4325 10.4125 13.625 10.625 C12.75875 10.74875 11.8925 10.8725 11 11 C10.34 10.34 9.68 9.68 9 9 C9.66 9 10.32 9 11 9 C11 8.34 11 7.68 11 7 C9.35 6.67 7.7 6.34 6 6 C6 5.01 6 4.02 6 3 C4.02 2.34 2.04 1.68 0 1 C0 0.67 0 0.34 0 0 Z " fill="#6EA8C7" transform="translate(124,18)"/>
<path d="M0 0 C1.26166992 0.00580078 1.26166992 0.00580078 2.54882812 0.01171875 C3.38607422 0.00785156 4.22332031 0.00398438 5.0859375 0 C6.28766602 0.00193359 6.28766602 0.00193359 7.51367188 0.00390625 C8.25093506 0.00503418 8.98819824 0.00616211 9.74780273 0.00732422 C11.61132812 0.13671875 11.61132812 0.13671875 13.61132812 1.13671875 C13.28132813 1.79671875 12.95132813 2.45671875 12.61132812 3.13671875 C7.00132813 2.80671875 1.39132813 2.47671875 -4.38867188 2.13671875 C-5.37867187 5.10671875 -6.36867188 8.07671875 -7.38867188 11.13671875 C-8.04867187 11.13671875 -8.70867188 11.13671875 -9.38867188 11.13671875 C-9.05867188 12.45671875 -8.72867188 13.77671875 -8.38867188 15.13671875 C-13.33867188 15.13671875 -18.28867187 15.13671875 -23.38867188 15.13671875 C-23.38867188 14.47671875 -23.38867188 13.81671875 -23.38867188 13.13671875 C-22.72867188 13.13671875 -22.06867187 13.13671875 -21.38867188 13.13671875 C-21.38867188 11.15671875 -21.38867188 9.17671875 -21.38867188 7.13671875 C-20.39867187 7.46671875 -19.40867188 7.79671875 -18.38867188 8.13671875 C-18.71867187 9.45671875 -19.04867187 10.77671875 -19.38867188 12.13671875 C-17.07867187 12.46671875 -14.76867187 12.79671875 -12.38867188 13.13671875 C-12.12054688 12.08484375 -11.85242187 11.03296875 -11.57617188 9.94921875 C-9.20854448 2.34788868 -7.90800241 0.01274456 0 0 Z " fill="#D3C8B0" transform="translate(70.388671875,115.86328125)"/>
<path d="M0 0 C0.99 0 1.98 0 3 0 C3.33 0.33 3.66 0.66 4 1 C4 0.67 4 0.34 4 0 C10.27 0 16.54 0 23 0 C23 0.33 23 0.66 23 1 C29.93 1 36.86 1 44 1 C44 0.67 44 0.34 44 0 C46.31 0 48.62 0 51 0 C51 0.33 51 0.66 51 1 C53.64 1 56.28 1 59 1 C59 1.66 59 2.32 59 3 C33.59 3 8.18 3 -18 3 C-18 2.67 -18 2.34 -18 2 C-12.06 2 -6.12 2 0 2 C0 1.34 0 0.68 0 0 Z " fill="#FEF3E8" transform="translate(138,70)"/>
<path d="M0 0 C5.28 0 10.56 0 16 0 C18.20063241 5.50158102 17.87821255 6.67839777 16 12 C13.23776722 9.23776722 13.42143709 6.79293383 13 3 C10.24921116 2.08307039 8.64051087 1.89113917 5.8125 1.9375 C4.554375 1.958125 3.29625 1.97875 2 2 C2.0928125 3.5159375 2.0928125 3.5159375 2.1875 5.0625 C1.97357173 9.55499372 0.95386468 12.01085961 -1 16 C-1.33 16 -1.66 16 -2 16 C-2.05447047 14.58376784 -2.09300508 13.16691809 -2.125 11.75 C-2.14820313 10.96109375 -2.17140625 10.1721875 -2.1953125 9.359375 C-1.98123653 6.77333728 -1.19312703 5.27351764 0 3 C0 2.01 0 1.02 0 0 Z " fill="#E1D6B9" transform="translate(66,78)"/>
<path d="M0 0 C0.33 0 0.66 0 1 0 C1.33 14.19 1.66 28.38 2 43 C-2.29 43 -6.58 43 -11 43 C-11 42.01 -11 41.02 -11 40 C-7.37 40.33 -3.74 40.66 0 41 C0 27.47 0 13.94 0 0 Z " fill="#B39F7C" transform="translate(169,88)"/>
<path d="M0 0 C0.93392578 -0.01224609 1.86785156 -0.02449219 2.83007812 -0.03710938 C8.22938249 -0.04850833 12.70920254 0.40169881 17.8125 2.1875 C17.8125 2.5175 17.8125 2.8475 17.8125 3.1875 C7.9125 3.1875 -1.9875 3.1875 -12.1875 3.1875 C-12.1875 2.5275 -12.1875 1.8675 -12.1875 1.1875 C-8.48915719 -0.6616714 -4.0700552 0.0027519 0 0 Z " fill="#FFFFFF" transform="translate(98.1875,68.8125)"/>
<path d="M0 0 C0 1.32 0 2.64 0 4 C-1.2375 4.144375 -2.475 4.28875 -3.75 4.4375 C-6.56504499 4.78688502 -9.2701497 5.20379366 -12 6 C-12 6.66 -12 7.32 -12 8 C-14.64 8 -17.28 8 -20 8 C-16.71552577 5.32077287 -13.26922257 3.54598373 -9.4375 1.75 C-8.30183594 1.20859375 -7.16617188 0.6671875 -5.99609375 0.109375 C-3 -1 -3 -1 0 0 Z " fill="#5A99B7" transform="translate(122,16)"/>
<path d="M0 0 C-1.15628906 0.58007812 -1.15628906 0.58007812 -2.3359375 1.171875 C-3.33882812 1.69265625 -4.34171875 2.2134375 -5.375 2.75 C-6.37273437 3.26046875 -7.37046875 3.7709375 -8.3984375 4.296875 C-11.17124315 6.11210512 -11.61127379 7.13801642 -13 10 C-14.875 10.6796875 -14.875 10.6796875 -17 10.875 C-18.051875 10.99488281 -18.051875 10.99488281 -19.125 11.1171875 C-21 11 -21 11 -23 9 C-19.73735861 7.29629989 -16.46372527 5.61490938 -13.1875 3.9375 C-12.25873047 3.45216797 -11.32996094 2.96683594 -10.37304688 2.46679688 C-9.48037109 2.01240234 -8.58769531 1.55800781 -7.66796875 1.08984375 C-6.84578857 0.66566162 -6.0236084 0.24147949 -5.17651367 -0.19555664 C-3 -1 -3 -1 0 0 Z " fill="#7DB3CF" transform="translate(77,37)"/>
<path d="M0 0 C2.97 0 5.94 0 9 0 C9.33 1.65 9.66 3.3 10 5 C5.71 5 1.42 5 -3 5 C-3 4.34 -3 3.68 -3 3 C-2.34 3 -1.68 3 -1 3 C-0.67 2.01 -0.34 1.02 0 0 Z " fill="#B79C79" transform="translate(108,74)"/>
<path d="M0 0 C3 3 3 3 3.1875 6.6875 C3.125625 7.780625 3.06375 8.87375 3 10 C6.3 10 9.6 10 13 10 C12.67 8.02 12.34 6.04 12 4 C15 6 15 6 17 12 C11.39 12 5.78 12 0 12 C0 11.34 0 10.68 0 10 C0.66 10 1.32 10 2 10 C1.34 6.7 0.68 3.4 0 0 Z " fill="#E2D9C2" transform="translate(84,119)"/>
<path d="M0 0 C5.01670207 0.65217127 9.23440787 2.78631151 13.75 4.9375 C14.52988281 5.29779297 15.30976563 5.65808594 16.11328125 6.02929688 C16.85449219 6.37927734 17.59570312 6.72925781 18.359375 7.08984375 C19.03452148 7.40816162 19.70966797 7.72647949 20.40527344 8.05444336 C22 9 22 9 23 11 C21.33333333 10.66666667 19.66666667 10.33333333 18 10 C17.21625 9.855625 16.4325 9.71125 15.625 9.5625 C12.3675409 8.86447305 9.19509458 7.9397337 6 7 C6 6.01 6 5.02 6 4 C4.02 3.01 2.04 2.02 0 1 C0 0.67 0 0.34 0 0 Z " fill="#7EB6D0" transform="translate(178,44)"/>
<path d="M0 0 C10.23 0 20.46 0 31 0 C31 0.33 31 0.66 31 1 C29.80455566 1.029729 29.80455566 1.029729 28.58496094 1.06005859 C24.97297528 1.15533248 21.36156601 1.26500307 17.75 1.375 C15.86861328 1.42140625 15.86861328 1.42140625 13.94921875 1.46875 C12.74394531 1.50742188 11.53867187 1.54609375 10.296875 1.5859375 C8.63156738 1.63306885 8.63156738 1.63306885 6.93261719 1.68115234 C4.11134958 1.98789356 2.4029991 2.54286225 0 4 C0 2.68 0 1.36 0 0 Z " fill="#AF9575" transform="translate(38,74)"/>
<path d="M0 0 C2.18975773 3.28463659 2.99806563 6.20696275 4 10 C3 11 3 11 -0.16015625 11.09765625 C-2.09181641 11.08025391 -2.09181641 11.08025391 -4.0625 11.0625 C-5.35285156 11.05347656 -6.64320312 11.04445313 -7.97265625 11.03515625 C-8.97167969 11.02355469 -9.97070312 11.01195313 -11 11 C-11.33 10.34 -11.66 9.68 -12 9 C-11.34 8.34 -10.68 7.68 -10 7 C-10 7.99 -10 8.98 -10 10 C-5.94393835 9.53199289 -2.53411321 9.12046792 1 7 C0.67 4.69 0.34 2.38 0 0 Z " fill="#DBD0BA" transform="translate(77,100)"/>
<path d="M0 0 C0 0.66 0 1.32 0 2 C-0.66 2 -1.32 2 -2 2 C-2.33 2.99 -2.66 3.98 -3 5 C-4.78515625 5.58984375 -4.78515625 5.58984375 -7.0625 5.9375 C-11.30551483 6.72249158 -14.55858129 8.12979116 -18.2734375 10.29296875 C-20 11 -20 11 -23 10 C-20.43873936 8.705826 -17.87606642 7.41459216 -15.3125 6.125 C-14.59126953 5.76019531 -13.87003906 5.39539062 -13.12695312 5.01953125 C-3.13352273 0 -3.13352273 0 0 0 Z " fill="#99CADD" transform="translate(54,47)"/>
<path d="M0 0 C0.99 0.33 1.98 0.66 3 1 C2.67 2.32 2.34 3.64 2 5 C7.05009595 5.93786082 7.05009595 5.93786082 12 5 C12.33 5.99 12.66 6.98 13 8 C8.05 8 3.1 8 -2 8 C-2 7.34 -2 6.68 -2 6 C-1.34 6 -0.68 6 0 6 C0 4.02 0 2.04 0 0 Z " fill="#DCD0B7" transform="translate(49,123)"/>
<path d="M0 0 C-0.66 0 -1.32 0 -2 0 C-2 0.99 -2 1.98 -2 3 C-5.6441774 5.4294516 -7.71241272 5.16179575 -12 5 C-12 6.32 -12 7.64 -12 9 C-12.99 9 -13.98 9 -15 9 C-15.33 8.01 -15.66 7.02 -16 6 C-13.9021477 4.79994469 -11.7979751 3.61497017 -9.6875 2.4375 C-8.79514648 1.92413086 -8.79514648 1.92413086 -7.88476562 1.40039062 C-3.33984375 -1.11328125 -3.33984375 -1.11328125 0 0 Z " fill="#82B2C8" transform="translate(31,59)"/>
<path d="M0 0 C1.13665504 3.40996511 0.91583208 3.86305848 -0.43359375 7.01171875 C-0.75263672 7.76904297 -1.07167969 8.52636719 -1.40039062 9.30664062 C-1.74263672 10.09232422 -2.08488281 10.87800781 -2.4375 11.6875 C-2.77587891 12.48478516 -3.11425781 13.28207031 -3.46289062 14.10351562 C-4.3000701 16.07265607 -5.1489353 18.03682084 -6 20 C-6.33 20 -6.66 20 -7 20 C-7.29341888 14.32723489 -7.00559652 11.00932754 -4 6 C-3.34 6 -2.68 6 -2 6 C-1.34 4.02 -0.68 2.04 0 0 Z " fill="#DACDB4" transform="translate(59,104)"/>
<path d="M0 0 C0.33 0.66 0.66 1.32 1 2 C3.02463255 2.65213292 3.02463255 2.65213292 5 3 C5 3.99 5 4.98 5 6 C1.78548731 7.60725635 -1.43612536 7.05748185 -5 7 C-5 6.34 -5 5.68 -5 5 C-4.34 5 -3.68 5 -3 5 C-2.67 4.01 -2.34 3.02 -2 2 C-1.34 2 -0.68 2 0 2 C0 1.34 0 0.68 0 0 Z " fill="#AE956B" transform="translate(73,101)"/>
<path d="M0 0 C1.65 0 3.3 0 5 0 C5 0.66 5 1.32 5 2 C14.24 2 23.48 2 33 2 C33 2.33 33 2.66 33 3 C22.44 3 11.88 3 1 3 C0.67 2.01 0.34 1.02 0 0 Z " fill="#116792" transform="translate(19,64)"/>
<path d="M0 0 C2.04159095 -0.0272616 4.08328963 -0.04651345 6.125 -0.0625 C7.26195313 -0.07410156 8.39890625 -0.08570312 9.5703125 -0.09765625 C12.8129156 -0.005327 15.81932612 0.38610094 19 1 C15.72708382 2.95294291 13.28659202 3.24471499 9.5 3.1875 C8.09234375 3.17783203 8.09234375 3.17783203 6.65625 3.16796875 C4.29379415 3.01857816 2.26283335 2.66710889 0 2 C0 1.34 0 0.68 0 0 Z " fill="#FFFFFF" transform="translate(60,69)"/>
<path d="M0 0 C0.99 0 1.98 0 3 0 C2.49202991 4.3177458 1.80317221 8.03302114 0 12 C-0.33 12 -0.66 12 -1 12 C-1.02712066 10.56260487 -1.04645067 9.12506137 -1.0625 7.6875 C-1.07410156 6.88699219 -1.08570313 6.08648437 -1.09765625 5.26171875 C-1 3 -1 3 0 0 Z " fill="#CCBEA0" transform="translate(65,82)"/>
<path d="M0 0 C0 0.99 0 1.98 0 3 C-3.61973402 4.31626692 -6.09567131 5 -10 5 C-10.33 5.66 -10.66 6.32 -11 7 C-11.66 6.34 -12.32 5.68 -13 5 C-11.39967863 4.15930585 -9.79458829 3.32768495 -8.1875 2.5 C-6.84751953 1.80390625 -6.84751953 1.80390625 -5.48046875 1.09375 C-3 0 -3 0 0 0 Z " fill="#236F9C" transform="translate(80,36)"/>
<path d="M0 0 C0 0.66 0 1.32 0 2 C-4.42778844 4.74522883 -7.71862571 6.48474397 -13 7 C-4.79310345 0 -4.79310345 0 0 0 Z " fill="#1A6899" transform="translate(94,29)"/>
<path d="M0 0 C0.99 0.495 0.99 0.495 2 1 C2 1.66 2 2.32 2 3 C2.99 3.33 3.98 3.66 5 4 C4.67 4.99 4.34 5.98 4 7 C4.66 7 5.32 7 6 7 C6 9.31 6 11.62 6 14 C3.74402173 11.74402173 3.03425808 9.95396133 1.875 7 C1.52179688 6.113125 1.16859375 5.22625 0.8046875 4.3125 C0 2 0 2 0 0 Z " fill="#D6C6AD" transform="translate(89,107)"/>
<path d="M0 0 C0.98120464 3.05263664 0.98120464 4.94736336 0 8 C2.97 8.495 2.97 8.495 6 9 C5.67 9.66 5.34 10.32 5 11 C2.69 11 0.38 11 -2 11 C-1.85892253 9.54119891 -1.71197585 8.08296449 -1.5625 6.625 C-1.48128906 5.81289062 -1.40007812 5.00078125 -1.31640625 4.1640625 C-1 2 -1 2 0 0 Z " fill="#C9BCA5" transform="translate(69,99)"/>
<path d="M0 0 C0.99 0 1.98 0 3 0 C5.125 4.625 5.125 4.625 4 8 C3.67 7.01 3.34 6.02 3 5 C1.68 5 0.36 5 -1 5 C-1.33 5.66 -1.66 6.32 -2 7 C-1.125 2.25 -1.125 2.25 0 0 Z " fill="#E1D8C8" transform="translate(72,92)"/>
<path d="M0 0 C1.125 1.5625 1.125 1.5625 2 4 C1.125 7.75 1.125 7.75 0 11 C-2.76223278 8.23776722 -2.57856291 5.79293383 -3 2 C-2.01 1.34 -1.02 0.68 0 0 Z " fill="#C8B89C" transform="translate(82,79)"/>
<path d="M0 0 C0.61488281 0.08378906 1.22976562 0.16757813 1.86328125 0.25390625 C3.07564453 0.40666016 3.07564453 0.40666016 4.3125 0.5625 C5.11300781 0.66691406 5.91351563 0.77132812 6.73828125 0.87890625 C9.16817116 1.14755178 9.16817116 1.14755178 12 0 C12.33 0.99 12.66 1.98 13 3 C8.71 3 4.42 3 0 3 C0 2.01 0 1.02 0 0 Z " fill="#E6DAC5" transform="translate(158,128)"/>
<path d="M0 0 C6.93 2.97 6.93 2.97 14 6 C13.67 6.99 13.34 7.98 13 9 C11.0625 8.625 11.0625 8.625 9 8 C8.67 7.34 8.34 6.68 8 6 C6.11986894 4.87775145 6.11986894 4.87775145 3.9375 3.875 C3.20402344 3.52179687 2.47054687 3.16859375 1.71484375 2.8046875 C1.14894531 2.53914063 0.58304688 2.27359375 0 2 C0 1.34 0 0.68 0 0 Z " fill="#276C8F" transform="translate(208,59)"/>
<path d="M0 0 C0 4.62 0 9.24 0 14 C-0.33 14 -0.66 14 -1 14 C-1 10.37 -1 6.74 -1 3 C-3.31 3 -5.62 3 -8 3 C-8 2.67 -8 2.34 -8 2 C-2.25 0 -2.25 0 0 0 Z " fill="#CFBDA4" transform="translate(147,119)"/>
<path d="M0 0 C0.66 0 1.32 0 2 0 C2 0.66 2 1.32 2 2 C3.98 2.66 5.96 3.32 8 4 C7.67 4.66 7.34 5.32 7 6 C2.25 5.125 2.25 5.125 0 4 C0 2.68 0 1.36 0 0 Z " fill="#2B74A1" transform="translate(122,17)"/>
<path d="M0 0 C0.33 0.99 0.66 1.98 1 3 C-2.96 4.98 -2.96 4.98 -7 7 C-7.33 6.01 -7.66 5.02 -8 4 C-5.36 2.68 -2.72 1.36 0 0 Z " fill="#1E6B9E" transform="translate(44,52)"/>
<path d="M0 0 C4.455 1.98 4.455 1.98 9 4 C9 4.33 9 4.66 9 5 C3.5 5.36666667 3.5 5.36666667 1.125 3.625 C0 2 0 2 0 0 Z " fill="#1A6794" transform="translate(193,52)"/>
<path d="M0 0 C0.99 0.33 1.98 0.66 3 1 C2.67 1.99 2.34 2.98 2 4 C-0.64 4 -3.28 4 -6 4 C-4.03617993 2.49440461 -2.21736634 1.10868317 0 0 Z " fill="#71B0C9" transform="translate(108,20)"/>
<path d="M0 0 C1.65 0 3.3 0 5 0 C5 0.33 5 0.66 5 1 C3.35 1 1.7 1 0 1 C0 0.67 0 0.34 0 0 Z " fill="#FFFFFF" transform="translate(36,70)"/>
<path d="M0 0 C3 1 3 1 3 1 Z " fill="#FFFFFF" transform="translate(178,70)"/>
<path d="" fill="#FFFFFF" transform="translate(0,0)"/>
<path d="" fill="#FFFFFF" transform="translate(0,0)"/>
<path d="" fill="#FFFFFF" transform="translate(0,0)"/>
<path d="" fill="#FFFFFF" transform="translate(0,0)"/>
<path d="" fill="#FFFFFF" transform="translate(0,0)"/>
<path d="" fill="#FFFFFF" transform="translate(0,0)"/>
<path d="" fill="#FFFFFF" transform="translate(0,0)"/>
<path d="" fill="#FFFFFF" transform="translate(0,0)"/>
<path d="" fill="#FFFFFF" transform="translate(0,0)"/>
</svg>
